<svg width="24" height="24" viewBox="0 0 24 24" fill="none" xmlns="http://www.w3.org/2000/svg">
<path d="M22.011 15.5663L22.0101 15.5633L2.68117 3.78044C2.19443 3.91946 1.89329 4.40618 2.03229 4.89275L1.98422 4.90648C1.98422 4.90648 1.98422 4.90649 1.98422 4.90649C2.13076 5.41957 2.66755 5.71244 3.15673 5.59013L5.05577 5.11528L9.05174 19.8289C9.05178 19.829 9.05182 19.8292 9.05186 19.8294C9.1062 20.0454 9.32189 20.1488 9.5294 20.0971L9.53045 20.0968L10.5099 19.8297C11.0181 20.8703 12.2322 21.4433 13.4004 21.1165C14.569 20.8124 15.3215 19.7232 15.2478 18.5568L21.1849 16.992C21.8184 16.8696 22.1773 16.1911 22.0109 15.5663L22.011 15.5663ZM5.69542 4.57863L5.69549 4.57861L5.6946 4.57593C5.64275 4.42057 5.48727 4.28683 5.32274 4.28683H5.25323V4.28535L5.24134 4.28827L2.97033 4.84449L2.97032 4.84445L2.96849 4.84497C2.90029 4.86444 2.84743 4.85279 2.80872 4.82734C2.76886 4.80114 2.73974 4.75741 2.72642 4.70655C2.69961 4.60417 2.73895 4.49141 2.85673 4.45447L6.21439 3.60938L9.86277 17.0483C9.86281 17.0485 9.86285 17.0487 9.8629 17.0488C9.91723 17.2648 10.1329 17.3683 10.3404 17.3165L10.3409 17.3164L10.8071 17.1955C10.3552 17.7407 10.1772 18.4624 10.272 19.1303L9.69189 19.2704L5.69542 4.57863ZM11.0947 19.2925L11.0947 19.2924C10.8018 18.3462 11.3422 17.3784 12.2878 17.1308L12.2883 17.1306C13.2797 16.8603 14.2478 17.5142 14.4276 18.4132L14.4276 18.4132L14.4278 18.4141C14.63 19.3354 14.0466 20.1691 13.1885 20.4177C12.287 20.6655 11.3645 20.1695 11.0947 19.2925ZM13.6323 16.4619C14.256 16.2964 14.9238 16.1196 15.6119 15.9374C17.3835 15.4682 19.2904 14.9631 20.93 14.5249L21.2646 15.7743L21.2647 15.7745C21.3272 16.004 21.2027 16.2305 20.9757 16.2926L13.6323 16.4619ZM18.7254 14.3126L10.5026 16.4885L8.74443 10.0267L16.9672 7.85081L18.7254 14.3126ZM7.6553 6.01763L11.9152 4.88463L12.793 8.14825L8.53295 9.28125L7.6553 6.01763Z" fill="#5D6679" stroke="#5D6679" stroke-width="0.1"/>
</svg>
