<svg width="33" height="32" viewBox="0 0 33 32" fill="none" xmlns="http://www.w3.org/2000/svg">
<rect x="0.699951" width="31.5" height="31.5" rx="4.2" fill="#E7E5FF"/>
<path fill-rule="evenodd" clip-rule="evenodd" d="M7.72372 2.09998C6.7441 2.09998 5.95007 2.894 5.95007 3.87362V26.5763C5.95007 27.556 6.7441 28.35 7.72372 28.35H24.7507C25.7304 28.35 26.5244 27.556 26.5244 26.5763V3.87362C26.5244 2.894 25.7304 2.09998 24.7507 2.09998H7.72372ZM10.6606 2.80937H7.72372C7.13581 2.80937 6.65947 3.28569 6.65947 3.87362V26.5763C6.65947 27.1642 7.13579 27.6406 7.72372 27.6406H24.7507C25.3387 27.6406 25.815 27.1643 25.815 26.5763V3.87362C25.815 3.28571 25.3387 2.80937 24.7507 2.80937H21.8139L21.347 4.21011C21.2022 4.64462 20.7954 4.93781 20.3374 4.93781H12.1374C11.6794 4.93781 11.2727 4.6446 11.1279 4.21011L10.6606 2.80937ZM21.0662 2.80937H11.4087L11.8009 3.98568C11.8491 4.13068 11.9847 4.22817 12.1374 4.22817H20.3373C20.49 4.22817 20.6256 4.13068 20.6739 3.98568L21.0662 2.80937Z" fill="#817AF3" fill-opacity="0.8"/>
<path fill-rule="evenodd" clip-rule="evenodd" d="M9.1427 9.90404C9.1427 9.31637 9.61902 8.83978 10.207 8.83978H11.6257C12.2137 8.83978 12.69 9.31635 12.69 9.90404V11.3228C12.69 11.9107 12.2137 12.3871 11.6257 12.3871H10.207C9.61904 12.3871 9.1427 11.9108 9.1427 11.3228V9.90404ZM10.207 9.5492C10.011 9.5492 9.85212 9.70806 9.85212 9.90404V11.3228C9.85212 11.5188 10.011 11.6777 10.207 11.6777H11.6257C11.8217 11.6777 11.9806 11.5188 11.9806 11.3228V9.90404C11.9806 9.70806 11.8217 9.5492 11.6257 9.5492H10.207Z" fill="#817AF3" fill-opacity="0.8"/>
<path fill-rule="evenodd" clip-rule="evenodd" d="M9.1427 15.2248C9.1427 14.6371 9.61902 14.1605 10.207 14.1605H11.6257C12.2137 14.1605 12.69 14.6371 12.69 15.2248V16.6436C12.69 17.2315 12.2137 17.7078 11.6257 17.7078H10.207C9.61904 17.7078 9.1427 17.2315 9.1427 16.6436V15.2248ZM10.207 14.8699C10.011 14.8699 9.85212 15.0288 9.85212 15.2248V16.6436C9.85212 16.8395 10.011 16.9984 10.207 16.9984H11.6257C11.8217 16.9984 11.9806 16.8395 11.9806 16.6436V15.2248C11.9806 15.0288 11.8217 14.8699 11.6257 14.8699H10.207Z" fill="#817AF3" fill-opacity="0.8"/>
<path fill-rule="evenodd" clip-rule="evenodd" d="M9.1427 20.5455C9.1427 19.9578 9.61902 19.4813 10.207 19.4813H11.6257C12.2137 19.4813 12.69 19.9578 12.69 20.5455V21.9643C12.69 22.5522 12.2137 23.0286 11.6257 23.0286H10.207C9.61904 23.0286 9.1427 22.5522 9.1427 21.9643V20.5455ZM10.207 20.1907C10.011 20.1907 9.85212 20.3495 9.85212 20.5455V21.9643C9.85212 22.1603 10.011 22.3191 10.207 22.3191H11.6257C11.8217 22.3191 11.9806 22.1603 11.9806 21.9643V20.5455C11.9806 20.3495 11.8217 20.1907 11.6257 20.1907H10.207Z" fill="#817AF3" fill-opacity="0.8"/>
<path fill-rule="evenodd" clip-rule="evenodd" d="M14.1093 10.6135C14.1093 10.4175 14.2681 10.2589 14.4641 10.2589H23.3323C23.5283 10.2589 23.6872 10.4175 23.6872 10.6135C23.6872 10.8095 23.5283 10.9683 23.3323 10.9683H14.4641C14.2681 10.9683 14.1093 10.8095 14.1093 10.6135Z" fill="#817AF3" fill-opacity="0.8"/>
<path fill-rule="evenodd" clip-rule="evenodd" d="M14.1093 15.9342C14.1093 15.7383 14.2681 15.5797 14.4641 15.5797H23.3323C23.5283 15.5797 23.6872 15.7383 23.6872 15.9342C23.6872 16.1302 23.5283 16.2891 23.3323 16.2891H14.4641C14.2681 16.2891 14.1093 16.1302 14.1093 15.9342Z" fill="#817AF3" fill-opacity="0.8"/>
<path fill-rule="evenodd" clip-rule="evenodd" d="M14.1093 21.255C14.1093 21.059 14.2681 20.9004 14.4641 20.9004H23.3323C23.5283 20.9004 23.6872 21.059 23.6872 21.255C23.6872 21.451 23.5283 21.6098 23.3323 21.6098H14.4641C14.2681 21.6098 14.1093 21.451 14.1093 21.255Z" fill="#817AF3" fill-opacity="0.8"/>
</svg>
