<svg width="32" height="32" viewBox="0 0 32 32" fill="none" xmlns="http://www.w3.org/2000/svg">
<rect x="0.324951" y="0.000183105" width="31.5" height="31.5" rx="4.2" fill="#EBFFED"/>
<path d="M20.2121 13.7436H13.7729C13.5226 13.7436 13.3197 13.5578 13.3197 13.3284C13.3197 13.0991 13.5226 12.9131 13.7729 12.9131H20.2118C20.4621 12.9131 20.6651 13.099 20.6651 13.3284C20.6651 13.5578 20.4621 13.7436 20.212 13.7436H20.2121Z" fill="#58D365" fill-opacity="0.7"/>
<path d="M20.2121 16.7603H13.7729C13.5226 16.7603 13.3197 16.5744 13.3197 16.345C13.3197 16.1157 13.5226 15.9298 13.7729 15.9298H20.2118C20.4621 15.9298 20.6651 16.1157 20.6651 16.345C20.6651 16.5744 20.4621 16.7603 20.212 16.7603H20.2121Z" fill="#58D365" fill-opacity="0.7"/>
<path d="M13.8396 19.5824C13.5893 19.5824 13.3864 19.3966 13.3864 19.1672C13.3864 18.9379 13.5892 18.752 13.8396 18.752C16.2647 18.752 18.3134 17.5936 18.3134 16.2225C18.3134 14.8513 16.2646 13.6928 13.8396 13.6928C13.5893 13.6928 13.3864 13.507 13.3864 13.2776C13.3864 13.0483 13.5892 12.8624 13.8396 12.8624C16.8567 12.8624 19.22 14.3383 19.22 16.2224C19.22 18.1064 16.8567 19.5824 13.8396 19.5824V19.5824Z" fill="#58D365" fill-opacity="0.7"/>
<path d="M18.6819 24.4664C18.5612 24.4664 18.4409 24.4225 18.3515 24.3356L13.5657 19.6706C13.3943 19.5034 13.4032 19.2407 13.5856 19.0837C13.7679 18.9268 14.0546 18.9349 14.2262 19.1018L19.012 23.7668C19.1835 23.934 19.1745 24.1967 18.9922 24.3538C18.9046 24.429 18.7931 24.4664 18.6818 24.4664L18.6819 24.4664Z" fill="#58D365" fill-opacity="0.7"/>
<path d="M4.55871 15.9722H6.7467V27.6414C6.7467 28.0499 7.06761 28.3708 7.47603 28.3708H26.4386C26.847 28.3708 27.1679 28.0499 27.1679 27.6414V15.9722H29.3559C29.9977 15.9722 30.3186 15.1845 29.8809 14.7178L17.4823 2.31926C17.1905 2.02745 16.7239 2.02745 16.4611 2.31926L4.03391 14.7178C3.59619 15.1845 3.9171 15.9722 4.55892 15.9722H4.55871ZM16.9573 3.86534L27.6055 14.5135H26.4387C26.0303 14.5135 25.7093 14.8344 25.7093 15.2429V26.9121H8.20546V15.2429C8.20546 14.8344 7.88454 14.5135 7.47613 14.5135H6.30931L16.9573 3.86534Z" fill="#58D365" fill-opacity="0.7"/>
</svg>
