<svg width="33" height="32" viewBox="0 0 33 32" fill="none" xmlns="http://www.w3.org/2000/svg">
<rect x="0.900024" width="31.5" height="31.5" rx="4.2" fill="#ECEAFF"/>
<path d="M16.4524 2.09998C13.8417 2.09998 11.3379 3.1371 9.49212 4.98298C7.64601 6.82908 6.60889 9.33286 6.60889 11.9438C6.60889 17.1937 15.5863 27.0372 15.9671 27.4838C16.0923 27.619 16.2686 27.695 16.4527 27.6939C16.6368 27.695 16.813 27.619 16.9383 27.4838L17.7651 26.5454V27.0376C17.7651 27.3856 17.9035 27.7196 18.1496 27.9657C18.3957 28.2118 18.7295 28.35 19.0777 28.35H26.9526C27.3007 28.35 27.6344 28.2118 27.8805 27.9657C28.1268 27.7196 28.265 27.3856 28.265 27.0376V19.1627C28.265 18.8146 28.1268 18.4806 27.8805 18.2345C27.6344 17.9885 27.3006 17.8502 26.9526 17.8502H24.1766C25.5809 15.4221 26.2963 13.4404 26.2963 11.9441C26.2963 10.2161 25.8415 8.51859 24.9775 7.02224C24.1136 5.52573 22.8708 4.28318 21.3745 3.41919C19.8781 2.5552 18.1806 2.10043 16.4527 2.10043L16.4524 2.09998ZM26.9525 27.037H19.0776V19.1621H21.0463V21.7871C21.047 22.0146 21.1654 22.2255 21.3592 22.3444C21.553 22.4634 21.7947 22.4736 21.9977 22.3712L23.0148 21.8658L24.0319 22.3712H24.0322C24.1236 22.418 24.2246 22.4428 24.3275 22.4432C24.4503 22.4437 24.5709 22.4096 24.6753 22.3448C24.8675 22.2246 24.9842 22.0139 24.9838 21.7871V19.1621H26.9525L26.9525 27.037ZM23.6713 19.1621V20.7239L23.3431 20.5468C23.1574 20.4532 22.9381 20.4532 22.7525 20.5468L22.3915 20.7239V19.1621H23.6713ZM21.7026 17.8497H19.0776C18.7293 17.8497 18.3955 17.9879 18.1495 18.234C17.9034 18.4801 17.7649 18.814 17.7649 19.1621V24.517C17.2334 25.1733 16.774 25.6916 16.4525 26.0526C14.5822 23.9198 7.92119 16.0583 7.92119 11.9436C7.92119 8.89557 9.54736 6.07962 12.1869 4.55526C14.8265 3.0309 18.0785 3.03124 20.7177 4.55526C23.3569 6.07928 24.9834 8.89546 24.9834 11.9436C24.9834 13.3151 24.1698 15.3561 22.6471 17.8498L21.7026 17.8497Z" fill="#817AF3" fill-opacity="0.6"/>
<path d="M16.4525 7.34985C15.2342 7.34985 14.0659 7.83391 13.2044 8.69523C12.3428 9.55674 11.8588 10.7253 11.8588 11.9436C11.8588 13.1618 12.3428 14.3303 13.2044 15.1918C14.0659 16.0533 15.2342 16.5372 16.4525 16.5372C17.6709 16.5372 18.8392 16.0533 19.7007 15.1918C20.5622 14.3303 21.0463 13.1618 21.0463 11.9436C21.0463 10.7253 20.5623 9.55674 19.7007 8.69523C18.8392 7.83394 17.6709 7.34985 16.4525 7.34985V7.34985ZM16.4525 15.2248C15.5822 15.2248 14.7477 14.8791 14.1325 14.2637C13.5171 13.6484 13.1714 12.8137 13.1714 11.9436C13.1714 11.0733 13.517 10.2388 14.1325 9.62334C14.7477 9.00808 15.5822 8.66226 16.4525 8.66226C17.3229 8.66226 18.1574 9.00811 18.7726 9.62334C19.388 10.2388 19.7337 11.0733 19.7337 11.9436C19.7337 12.8137 19.388 13.6485 18.7726 14.2637C18.1573 14.8791 17.3229 15.2248 16.4525 15.2248Z" fill="#817AF3" fill-opacity="0.6"/>
</svg>
