<svg width="33" height="32" viewBox="0 0 33 32" fill="none" xmlns="http://www.w3.org/2000/svg">
<rect x="0.974976" y="0.000183105" width="31.5" height="31.5" rx="4.2" fill="#FFEEDB"/>
<path fill-rule="evenodd" clip-rule="evenodd" d="M4.44452 17.613C4.38019 17.4282 4.47794 17.2259 4.6628 17.1605C13.3705 14.1293 20.9943 9.67071 27.3417 3.9132L25.5368 4.01133C25.3423 4.02138 25.1738 3.87206 25.1632 3.67561C25.1526 3.4807 25.3025 3.31265 25.4982 3.3026L28.2966 3.15039H28.334C28.4266 3.15522 28.5146 3.19656 28.5774 3.26552C28.6493 3.34394 28.6821 3.45038 28.6665 3.55604L28.2626 6.32951C28.2369 6.50606 28.0852 6.63259 27.9122 6.63259C27.8952 6.63259 27.8782 6.63123 27.8606 6.62834C27.6666 6.59975 27.5326 6.42069 27.5606 6.22713L27.8214 4.43554C21.4027 10.2588 13.6964 14.7672 4.89567 17.8312C4.85704 17.8453 4.81783 17.8511 4.77881 17.8511C4.63239 17.8511 4.49543 17.7599 4.44425 17.6133L4.44452 17.613ZM29.9649 28.6904V10.3522H27.2729V28.6904H29.9649ZM30.3197 9.64214H26.9185C26.7226 9.64214 26.5636 9.80131 26.5636 9.99641V29.0447C26.5636 29.2411 26.7222 29.399 26.9185 29.399H30.3197C30.5158 29.399 30.6746 29.241 30.6746 29.0447V9.99641C30.6746 9.80151 30.5156 9.64214 30.3197 9.64214V9.64214ZM22.5852 28.6904V14.2074H19.8932V28.6904H22.5852ZM22.94 13.4973H19.5386C19.3427 13.4973 19.1837 13.6568 19.1837 13.8518V29.0449C19.1837 29.2413 19.3427 29.3992 19.5386 29.3992H22.9398C23.1357 29.3992 23.2947 29.2411 23.2947 29.0449L23.2945 13.8518C23.2949 13.6568 23.1359 13.4973 22.94 13.4973H22.94ZM15.2055 28.6904V17.3238H12.5135V28.6899H15.2055V28.6904ZM15.5603 16.6156H12.1591C11.9632 16.6156 11.8042 16.7736 11.8042 16.9699V29.0447C11.8042 29.2411 11.9632 29.399 12.1591 29.399H15.5603C15.7562 29.399 15.9152 29.241 15.9152 29.0447V16.9699C15.9152 16.7734 15.7562 16.6156 15.5603 16.6156V16.6156ZM7.82581 28.6904H5.13422V21.9167H7.8262V28.6904H7.82581ZM8.18065 21.2076H4.77941C4.58335 21.2076 4.42456 21.3656 4.42456 21.5621V29.0449C4.42456 29.2413 4.58315 29.3992 4.77941 29.3992H8.18065C8.37652 29.3992 8.5355 29.2411 8.5355 29.0449V21.5621C8.5355 21.3656 8.37653 21.2078 8.18065 21.2078V21.2076Z" fill="#DBA362" fill-opacity="0.8"/>
<path d="M27.6755 4.70872L27.4567 6.21201L27.4567 6.21209C27.4204 6.463 27.594 6.6947 27.8444 6.73208C27.8673 6.73582 27.8897 6.73759 27.9122 6.73759C28.1364 6.73759 28.3331 6.57376 28.3665 6.34464L28.7703 3.57142C28.7703 3.57141 28.7703 3.57141 28.7703 3.5714L28.7704 3.57117L28.6665 3.55604C28.6821 3.45038 28.6493 3.34394 28.5774 3.26552M27.6755 4.70872L25.4926 3.19775C25.4927 3.19775 25.4927 3.19774 25.4928 3.19774L28.2908 3.04555L28.2966 3.04524V3.04539H28.334H28.3395L28.3395 3.04553C28.4594 3.05179 28.5734 3.10524 28.6549 3.19471M27.6755 4.70872C21.2893 10.4475 13.645 14.8962 4.93088 17.9301C4.87945 17.9487 4.82812 17.9561 4.77881 17.9561C4.58917 17.9561 4.41148 17.838 4.34512 17.6479L4.32062 17.5777L4.3262 17.5732C4.28915 17.3559 4.41331 17.1374 4.62774 17.0615L4.62828 17.0613C13.2232 14.0694 20.7589 9.68549 27.051 4.03416L25.5425 4.11618L25.5422 4.11619C25.2904 4.12919 25.0722 3.93607 25.0584 3.68132L27.6755 4.70872ZM28.5774 3.26552L28.6551 3.19483C28.655 3.19479 28.655 3.19475 28.6549 3.19471M28.5774 3.26552L28.6548 3.19458C28.6549 3.19462 28.6549 3.19466 28.6549 3.19471M28.5774 3.26552C28.5146 3.19656 28.4266 3.15522 28.334 3.15039L28.6549 3.19471M23.3995 13.852C23.4 13.5989 23.1939 13.3923 22.94 13.3923H19.5386C19.2847 13.3923 19.0787 13.5989 19.0787 13.8518V29.0449C19.0787 29.2997 19.2851 29.5042 19.5386 29.5042H22.9398C23.1934 29.5042 23.3997 29.2994 23.3997 29.0449L23.3995 13.852ZM23.3995 13.852L23.2945 13.8518L23.3995 13.8518V13.852ZM8.28565 21.1148V21.1026H8.18065H4.77941C4.52558 21.1026 4.31956 21.3074 4.31956 21.5621V29.0449C4.31956 29.2996 4.52542 29.5042 4.77941 29.5042H8.18065C8.43421 29.5042 8.6405 29.2994 8.6405 29.0449V21.5621C8.6405 21.3436 8.48877 21.1621 8.28565 21.1148ZM27.3779 10.4572H29.8599V28.5854H27.3779V10.4572ZM30.3197 9.53714H26.9185C26.6647 9.53714 26.4586 9.74325 26.4586 9.99641V29.0447C26.4586 29.2994 26.6645 29.504 26.9185 29.504H30.3197C30.5735 29.504 30.7796 29.2992 30.7796 29.0447V9.99641C30.7796 9.74348 30.5735 9.53714 30.3197 9.53714ZM19.9982 14.3124H22.4802V28.5854H19.9982V14.3124ZM12.6185 17.4288H15.1005V28.5849H12.6185V17.4288ZM15.5603 16.5106H12.1591C11.9055 16.5106 11.6992 16.7154 11.6992 16.9699V29.0447C11.6992 29.2995 11.9056 29.504 12.1591 29.504H15.5603C15.8139 29.504 16.0202 29.2992 16.0202 29.0447V16.9699C16.0202 16.7151 15.8139 16.5106 15.5603 16.5106ZM7.7212 28.5854H5.23922V22.0217H7.7212V28.5854Z" stroke="#DBA362" stroke-opacity="0.8" stroke-width="0.21"/>
</svg>
