<svg width="32" height="32" viewBox="0 0 32 32" fill="none" xmlns="http://www.w3.org/2000/svg">
<rect x="0.0999756" width="31.5" height="31.5" rx="4.2" fill="#FFEEDB"/>
<path d="M12.6709 13.5323L12.6397 13.5323C12.6513 13.5323 12.6617 13.5323 12.6709 13.5323ZM12.6709 13.5323C12.6759 13.5323 12.6805 13.5323 12.6849 13.5323M12.6709 13.5323L12.6849 13.5323M12.6849 13.5323L12.6709 13.5068L12.6514 13.4715L12.6709 13.4608L12.6748 13.4586L12.7021 13.5635L12.6849 13.5323ZM12.6849 13.5323C12.6913 13.5323 12.697 13.5323 12.7021 13.5323L12.6849 13.5323ZM28.9857 7.75819H29.0427L28.9237 7.59203L26.2343 3.83944L26.2336 3.83851C25.8711 3.34429 25.3089 3.04502 24.7103 3.04502L18.2057 3.04524H6.82273C6.2279 3.04524 5.63157 3.34159 5.29774 3.84108L2.60937 7.59224L2.60452 7.59901L2.6008 7.60645C2.59956 7.60893 2.59828 7.61147 2.59698 7.61407C2.56868 7.67048 2.52732 7.7529 2.52732 7.84101V26.2289C2.52732 27.1937 3.29352 27.9601 4.25852 27.9601H27.2434C28.2095 27.9601 28.9746 27.1612 28.9746 26.2289L28.9744 7.86192C28.9872 7.82573 28.9894 7.79049 28.9857 7.75819ZM15.716 11.7829L12.7447 13.4201V7.91812L13.9069 3.88058H17.6574L18.7889 7.8867V13.3899L15.8166 11.7825L15.7662 11.7553L15.716 11.7829ZM18.8627 13.5011H18.8939H18.8627ZM5.97023 4.30559L5.97024 4.3056L5.9708 4.30479C6.16785 4.02335 6.47758 3.88058 6.823 3.88058H13.0323L12.0286 7.42316H3.74353L5.97023 4.30559ZM19.2481 14.1605L19.2569 14.1567L19.265 14.1514C19.4792 14.0086 19.6245 13.7581 19.6245 13.5012L19.6241 8.25856H28.1703L28.1705 26.2288C28.1705 26.7315 27.7507 27.1246 27.2747 27.1246H4.25853C3.75584 27.1246 3.36272 26.7047 3.36272 26.2288V8.25856H11.9089V13.5012C11.9089 13.792 12.0564 14.0102 12.2684 14.1513C12.3833 14.228 12.5302 14.2628 12.6707 14.2628C12.7814 14.2628 12.9251 14.2276 13.0374 14.1542L15.7667 12.6823L18.499 14.1558C18.7576 14.3028 19.0137 14.2609 19.2481 14.1605ZM24.7105 3.88058C25.0498 3.88058 25.3636 4.05017 25.5646 4.3074L27.7901 7.42318H19.5363L18.5326 3.8806L24.7105 3.88058Z" fill="#DBA362" stroke="#DBA362" stroke-width="0.21"/>
<path d="M13.2653 7.42302H13.1603V7.52802V8.1534V8.2584H13.2653H18.2689H18.3739V8.1534V7.52802V7.42302H18.2689H13.2653Z" fill="#DBA362" stroke="#DBA362" stroke-width="0.21"/>
</svg>
