<svg width="33" height="32" viewBox="0 0 33 32" fill="none" xmlns="http://www.w3.org/2000/svg">
<rect x="0.775024" y="0.000183105" width="31.5" height="31.5" rx="4.2" fill="#ECEAFF"/>
<mask id="path-2-outside-1_60_386" maskUnits="userSpaceOnUse" x="2.92493" y="2.15039" width="28" height="27" fill="black">
<rect fill="white" x="2.92493" y="2.15039" width="28" height="27"/>
<path d="M20.4953 15.9756H13.604C13.4013 15.9756 13.2366 16.1402 13.2366 16.3429V27.7666C13.2366 27.9692 13.4013 28.1339 13.604 28.1339H20.4948C20.6975 28.1339 20.8621 27.9692 20.8621 27.7666L20.8623 16.3429C20.8623 16.1402 20.6977 15.9756 20.495 15.9756H20.4953ZM13.9719 21.6625V20.4918H20.1285V21.6632H13.9719V21.6625ZM20.128 22.3974V23.5688H13.9719V22.3974H20.128ZM13.9719 19.7571V18.5857H20.1285V19.7571H13.9719ZM13.9719 24.3036H20.1285V25.475H13.9719V24.3036ZM20.128 16.7102V17.8511L13.9719 17.8509V16.71L20.128 16.7102ZM13.9719 27.3986V26.2095H20.1285L20.1283 27.3986H13.9719ZM29.8076 10.2633H22.9168C22.7141 10.2633 22.5494 10.428 22.5494 10.6307L22.5492 27.7659C22.5492 27.9686 22.7139 28.1332 22.9165 28.1332H29.8074C30.0101 28.1332 30.1747 27.9686 30.1747 27.7659L30.1749 10.6307C30.1749 10.428 30.0109 10.2633 29.8076 10.2633ZM23.2842 19.756V18.5846H29.4408V19.756H23.2842ZM29.4408 20.4907V21.6621H23.2842V20.4907H29.4408ZM23.2842 17.8504V16.679H29.4408V17.8504H23.2842ZM23.2842 15.9444V14.773H29.4408V15.9444H23.2842ZM23.2842 22.3968H29.4408V23.5682H23.2842V22.3968ZM29.4408 14.038H23.2842V12.8666H29.4408V14.038ZM23.2842 24.3032H29.4408V25.4746H23.2842V24.3032ZM29.4408 10.9977V12.1317H23.2842V10.9977H29.4408ZM23.2842 27.3981V26.209H29.4408V27.3981H23.2842ZM11.1831 21.6866H4.29226C4.08959 21.6866 3.92493 21.8512 3.92493 22.0539V27.766C3.92493 27.9687 4.08958 28.1334 4.29226 28.1334H11.1831C11.3858 28.1334 11.5504 27.9687 11.5504 27.766V22.0545C11.5506 21.8516 11.3858 21.6869 11.1831 21.6869V21.6866ZM4.65965 24.3251H10.8162V25.494H4.65965V24.3251ZM10.8162 22.4215V23.5903H4.65965V22.4215H10.8162ZM4.65965 27.3983V26.2295H10.8162V27.3983H4.65965ZM18.2715 12.252L26.6385 3.88505H22.7954C22.5928 3.88505 22.4281 3.72039 22.4281 3.51772C22.4281 3.31505 22.5928 3.15039 22.7954 3.15039H27.5257C27.7283 3.15039 27.893 3.31505 27.893 3.51772V8.24793C27.893 8.45059 27.7283 8.61526 27.5257 8.61526C27.323 8.61526 27.1583 8.4506 27.1583 8.24793V4.40488L18.5317 13.0315C18.3884 13.1748 18.1558 13.1748 18.0118 13.0315L15.2815 10.3012L6.83523 18.748C6.76369 18.8195 6.66929 18.8558 6.57554 18.8558C6.48179 18.8558 6.3876 18.8197 6.31585 18.748C6.17255 18.6047 6.17255 18.3721 6.31585 18.2288L15.0223 9.52232C15.1656 9.37902 15.3982 9.37902 15.5421 9.52232L18.2715 12.252Z"/>
</mask>
<path d="M20.4953 15.9756H13.604C13.4013 15.9756 13.2366 16.1402 13.2366 16.3429V27.7666C13.2366 27.9692 13.4013 28.1339 13.604 28.1339H20.4948C20.6975 28.1339 20.8621 27.9692 20.8621 27.7666L20.8623 16.3429C20.8623 16.1402 20.6977 15.9756 20.495 15.9756H20.4953ZM13.9719 21.6625V20.4918H20.1285V21.6632H13.9719V21.6625ZM20.128 22.3974V23.5688H13.9719V22.3974H20.128ZM13.9719 19.7571V18.5857H20.1285V19.7571H13.9719ZM13.9719 24.3036H20.1285V25.475H13.9719V24.3036ZM20.128 16.7102V17.8511L13.9719 17.8509V16.71L20.128 16.7102ZM13.9719 27.3986V26.2095H20.1285L20.1283 27.3986H13.9719ZM29.8076 10.2633H22.9168C22.7141 10.2633 22.5494 10.428 22.5494 10.6307L22.5492 27.7659C22.5492 27.9686 22.7139 28.1332 22.9165 28.1332H29.8074C30.0101 28.1332 30.1747 27.9686 30.1747 27.7659L30.1749 10.6307C30.1749 10.428 30.0109 10.2633 29.8076 10.2633ZM23.2842 19.756V18.5846H29.4408V19.756H23.2842ZM29.4408 20.4907V21.6621H23.2842V20.4907H29.4408ZM23.2842 17.8504V16.679H29.4408V17.8504H23.2842ZM23.2842 15.9444V14.773H29.4408V15.9444H23.2842ZM23.2842 22.3968H29.4408V23.5682H23.2842V22.3968ZM29.4408 14.038H23.2842V12.8666H29.4408V14.038ZM23.2842 24.3032H29.4408V25.4746H23.2842V24.3032ZM29.4408 10.9977V12.1317H23.2842V10.9977H29.4408ZM23.2842 27.3981V26.209H29.4408V27.3981H23.2842ZM11.1831 21.6866H4.29226C4.08959 21.6866 3.92493 21.8512 3.92493 22.0539V27.766C3.92493 27.9687 4.08958 28.1334 4.29226 28.1334H11.1831C11.3858 28.1334 11.5504 27.9687 11.5504 27.766V22.0545C11.5506 21.8516 11.3858 21.6869 11.1831 21.6869V21.6866ZM4.65965 24.3251H10.8162V25.494H4.65965V24.3251ZM10.8162 22.4215V23.5903H4.65965V22.4215H10.8162ZM4.65965 27.3983V26.2295H10.8162V27.3983H4.65965ZM18.2715 12.252L26.6385 3.88505H22.7954C22.5928 3.88505 22.4281 3.72039 22.4281 3.51772C22.4281 3.31505 22.5928 3.15039 22.7954 3.15039H27.5257C27.7283 3.15039 27.893 3.31505 27.893 3.51772V8.24793C27.893 8.45059 27.7283 8.61526 27.5257 8.61526C27.323 8.61526 27.1583 8.4506 27.1583 8.24793V4.40488L18.5317 13.0315C18.3884 13.1748 18.1558 13.1748 18.0118 13.0315L15.2815 10.3012L6.83523 18.748C6.76369 18.8195 6.66929 18.8558 6.57554 18.8558C6.48179 18.8558 6.3876 18.8197 6.31585 18.748C6.17255 18.6047 6.17255 18.3721 6.31585 18.2288L15.0223 9.52232C15.1656 9.37902 15.3982 9.37902 15.5421 9.52232L18.2715 12.252Z" fill="#817AF3"/>
<path d="M20.4953 15.9756H13.604C13.4013 15.9756 13.2366 16.1402 13.2366 16.3429V27.7666C13.2366 27.9692 13.4013 28.1339 13.604 28.1339H20.4948C20.6975 28.1339 20.8621 27.9692 20.8621 27.7666L20.8623 16.3429C20.8623 16.1402 20.6977 15.9756 20.495 15.9756H20.4953ZM13.9719 21.6625V20.4918H20.1285V21.6632H13.9719V21.6625ZM20.128 22.3974V23.5688H13.9719V22.3974H20.128ZM13.9719 19.7571V18.5857H20.1285V19.7571H13.9719ZM13.9719 24.3036H20.1285V25.475H13.9719V24.3036ZM20.128 16.7102V17.8511L13.9719 17.8509V16.71L20.128 16.7102ZM13.9719 27.3986V26.2095H20.1285L20.1283 27.3986H13.9719ZM29.8076 10.2633H22.9168C22.7141 10.2633 22.5494 10.428 22.5494 10.6307L22.5492 27.7659C22.5492 27.9686 22.7139 28.1332 22.9165 28.1332H29.8074C30.0101 28.1332 30.1747 27.9686 30.1747 27.7659L30.1749 10.6307C30.1749 10.428 30.0109 10.2633 29.8076 10.2633ZM23.2842 19.756V18.5846H29.4408V19.756H23.2842ZM29.4408 20.4907V21.6621H23.2842V20.4907H29.4408ZM23.2842 17.8504V16.679H29.4408V17.8504H23.2842ZM23.2842 15.9444V14.773H29.4408V15.9444H23.2842ZM23.2842 22.3968H29.4408V23.5682H23.2842V22.3968ZM29.4408 14.038H23.2842V12.8666H29.4408V14.038ZM23.2842 24.3032H29.4408V25.4746H23.2842V24.3032ZM29.4408 10.9977V12.1317H23.2842V10.9977H29.4408ZM23.2842 27.3981V26.209H29.4408V27.3981H23.2842ZM11.1831 21.6866H4.29226C4.08959 21.6866 3.92493 21.8512 3.92493 22.0539V27.766C3.92493 27.9687 4.08958 28.1334 4.29226 28.1334H11.1831C11.3858 28.1334 11.5504 27.9687 11.5504 27.766V22.0545C11.5506 21.8516 11.3858 21.6869 11.1831 21.6869V21.6866ZM4.65965 24.3251H10.8162V25.494H4.65965V24.3251ZM10.8162 22.4215V23.5903H4.65965V22.4215H10.8162ZM4.65965 27.3983V26.2295H10.8162V27.3983H4.65965ZM18.2715 12.252L26.6385 3.88505H22.7954C22.5928 3.88505 22.4281 3.72039 22.4281 3.51772C22.4281 3.31505 22.5928 3.15039 22.7954 3.15039H27.5257C27.7283 3.15039 27.893 3.31505 27.893 3.51772V8.24793C27.893 8.45059 27.7283 8.61526 27.5257 8.61526C27.323 8.61526 27.1583 8.4506 27.1583 8.24793V4.40488L18.5317 13.0315C18.3884 13.1748 18.1558 13.1748 18.0118 13.0315L15.2815 10.3012L6.83523 18.748C6.76369 18.8195 6.66929 18.8558 6.57554 18.8558C6.48179 18.8558 6.3876 18.8197 6.31585 18.748C6.17255 18.6047 6.17255 18.3721 6.31585 18.2288L15.0223 9.52232C15.1656 9.37902 15.3982 9.37902 15.5421 9.52232L18.2715 12.252Z" stroke="#817AF3" stroke-width="0.21" mask="url(#path-2-outside-1_60_386)"/>
</svg>
