<svg width="32" height="32" viewBox="0 0 32 32" fill="none" xmlns="http://www.w3.org/2000/svg">
<rect width="31.5" height="31.5" rx="4.2" fill="#E8F1FD"/>
<path d="M19.5503 8.75615C20.1914 8.75615 20.8064 8.50151 21.2598 8.04815C21.7132 7.59476 21.9678 6.97973 21.9678 6.33865C21.9678 5.69737 21.7132 5.08256 21.2598 4.62914C20.8064 4.17575 20.1914 3.92114 19.5503 3.92114C18.909 3.92114 18.2942 4.17578 17.8408 4.62914C17.3874 5.08254 17.1326 5.69731 17.1326 6.33865C17.1326 6.97973 17.3874 7.59473 17.8408 8.04815C18.2942 8.50154 18.909 8.75615 19.5503 8.75615ZM19.5503 5.30248C19.825 5.30248 20.0885 5.41161 20.2829 5.60603C20.4771 5.8002 20.5862 6.06376 20.5862 6.33864C20.5862 6.61327 20.4771 6.87683 20.2829 7.07125C20.0885 7.26542 19.825 7.37479 19.5503 7.37479C19.2754 7.37479 19.0119 7.26542 18.8175 7.07125C18.6233 6.87684 18.5142 6.61328 18.5142 6.33864C18.5142 6.06377 18.6233 5.80021 18.8175 5.60603C19.0119 5.41162 19.2754 5.30248 19.5503 5.30248V5.30248Z" fill="#629FF4"/>
<path d="M23.3496 11.1739C23.3496 11.8152 23.6042 12.43 24.0576 12.8834C24.511 13.3368 25.126 13.5914 25.7671 13.5914C26.4084 13.5914 27.0232 13.3368 27.4766 12.8834C27.93 12.43 28.1849 11.8152 28.1849 11.1739C28.1849 10.5328 27.93 9.91783 27.4766 9.46441C27.0232 9.01102 26.4084 8.75641 25.7671 8.75641C25.126 8.75641 24.511 9.01105 24.0576 9.46441C23.6042 9.9178 23.3496 10.5328 23.3496 11.1739ZM26.8033 11.1739C26.8033 11.4488 26.6941 11.7123 26.5 11.9065C26.3056 12.1009 26.042 12.2101 25.7671 12.2101C25.4925 12.2101 25.2289 12.1009 25.0345 11.9065C24.8403 11.7123 24.7312 11.4488 24.7312 11.1739C24.7312 10.8993 24.8403 10.6357 25.0345 10.4413C25.2289 10.2471 25.4925 10.1378 25.7671 10.1378C26.042 10.1378 26.3055 10.2471 26.5 10.4413C26.6941 10.6357 26.8033 10.8993 26.8033 11.1739Z" fill="#629FF4"/>
<path d="M19.1397 13.2837C19.2869 13.3931 19.472 13.4391 19.6534 13.4119C19.8348 13.3846 19.9979 13.2863 20.1068 13.1387L25.9779 5.19524V5.19548C26.2049 4.88832 26.1401 4.45541 25.8329 4.22845C25.5257 4.00128 25.0928 4.06632 24.8659 4.37348L18.9947 12.3169V12.3167C18.8853 12.4641 18.8393 12.6489 18.8665 12.8303C18.8938 13.0117 18.9921 13.175 19.1397 13.2837L19.1397 13.2837Z" fill="#629FF4"/>
<path d="M8.49861 9.79205C7.51789 9.79205 2.62744 9.89227 2.62744 11.8644C2.62744 13.8365 7.51789 13.9367 8.49861 13.9367C9.47932 13.9367 14.3698 13.8365 14.3698 11.8644C14.37 9.89227 9.47957 9.79205 8.49861 9.79205V9.79205ZM8.49861 12.555C6.19168 12.555 4.69945 12.1578 4.16081 11.8644C4.69972 11.5707 6.19168 11.1735 8.49861 11.1735C10.8055 11.1735 12.2978 11.5707 12.8364 11.8641C12.2977 12.1578 10.8058 12.555 8.49861 12.555V12.555Z" fill="#629FF4"/>
<path d="M13.6793 13.4186C13.3372 13.414 13.0433 13.6609 12.9886 13.9987C12.6846 14.2887 11.1064 14.7999 8.49881 14.7999C5.89148 14.7999 4.30267 14.282 4.00923 13.9987C3.97864 13.6173 3.64474 13.3328 3.26312 13.3631C2.88176 13.3937 2.59724 13.7276 2.62758 14.1092C2.62758 16.0813 7.51803 16.1816 8.49875 16.1816C9.47947 16.1816 14.3699 16.0813 14.3699 14.1092H14.3702C14.3702 13.9259 14.2974 13.7503 14.1678 13.6207C14.0382 13.4913 13.8626 13.4186 13.6792 13.4186H13.6793Z" fill="#629FF4"/>
<path d="M13.6793 15.8365C13.3372 15.8321 13.0433 16.0788 12.9886 16.4166C12.6846 16.7066 11.1064 17.2178 8.49881 17.2178C5.89148 17.2178 4.30267 16.6999 4.00923 16.4166C3.97864 16.0352 3.64474 15.7507 3.26312 15.781C2.88176 15.8116 2.59724 16.1455 2.62758 16.5271C2.62758 18.4992 7.51803 18.5995 8.49875 18.5995C9.47947 18.5995 14.3699 18.4992 14.3699 16.5271H14.3702C14.3702 16.344 14.2974 16.1682 14.1678 16.0388C14.0382 15.9092 13.8626 15.8365 13.6792 15.8365H13.6793Z" fill="#629FF4"/>
<path d="M13.6793 18.2536C13.3372 18.2493 13.0433 18.496 12.9886 18.8337C12.6846 19.1238 11.1064 19.635 8.49881 19.635C5.89148 19.635 4.30267 19.117 4.00923 18.8337C3.97864 18.4524 3.64474 18.1678 3.26312 18.1984C2.88176 18.2288 2.59724 18.5629 2.62758 18.9443C2.62758 20.9164 7.51803 21.0166 8.49875 21.0166C9.47947 21.0166 14.3699 20.9164 14.3699 18.9443H14.3702C14.3702 18.7612 14.2974 18.5853 14.1678 18.456C14.0382 18.3264 13.8626 18.2536 13.6792 18.2536H13.6793Z" fill="#629FF4"/>
<path d="M13.6793 20.6715C13.3372 20.6671 13.0433 20.9138 12.9886 21.2518C12.6846 21.5419 11.1064 22.0531 8.49881 22.0531C5.89148 22.0531 4.30267 21.5349 4.00923 21.2518C3.97864 20.8702 3.64474 20.5857 3.26312 20.6163C2.88176 20.6469 2.59724 20.9808 2.62758 21.3621C2.62758 23.3342 7.51803 23.4345 8.49875 23.4345C9.47947 23.4345 14.3699 23.3342 14.3699 21.3621H14.3702C14.3702 21.179 14.2974 21.0034 14.1678 20.8738C14.0382 20.7442 13.8626 20.6715 13.6792 20.6715H13.6793Z" fill="#629FF4"/>
<path d="M13.6793 23.0888C13.3372 23.0845 13.0433 23.3314 12.9886 23.6692C12.6846 23.9592 11.1064 24.4704 8.49881 24.4704C5.89148 24.4704 4.30267 23.9522 4.00923 23.6692C3.97864 23.2876 3.64474 23.003 3.26312 23.0336C2.88176 23.0642 2.59724 23.3981 2.62758 23.7797C2.62758 25.7518 7.51803 25.8521 8.49875 25.8521C9.47947 25.8521 14.3699 25.7518 14.3699 23.7797H14.3702C14.3702 23.5964 14.2974 23.4208 14.1678 23.2912C14.0382 23.1616 13.8626 23.0888 13.6792 23.0888L13.6793 23.0888Z" fill="#629FF4"/>
<path d="M23.0042 20.4986C23.9849 20.4986 28.8754 20.3984 28.8754 18.4263C28.8754 16.4542 23.9849 16.354 23.0042 16.354C22.0235 16.354 17.1331 16.4542 17.1331 18.4263C17.1328 20.3986 22.0233 20.4986 23.0042 20.4986V20.4986ZM23.0042 17.7357C25.3111 17.7357 26.8034 18.1329 27.342 18.4263C26.8031 18.72 25.3111 19.1172 23.0042 19.1172C20.6973 19.1172 19.2051 18.72 18.6664 18.4266C19.2051 18.1329 20.6971 17.7359 23.0042 17.7359V17.7357Z" fill="#629FF4"/>
<path d="M28.1848 19.9804C27.8425 19.976 27.5488 20.2227 27.4939 20.5605C27.1899 20.8505 25.6116 21.3617 23.0041 21.3617C20.3967 21.3617 18.8079 20.8438 18.5145 20.5605C18.4839 20.1791 18.15 19.8946 17.7684 19.9252C17.387 19.9555 17.1025 20.2897 17.1328 20.671C17.1328 22.6431 22.0233 22.7434 23.004 22.7434C23.9847 22.7434 28.8752 22.6431 28.8752 20.671H28.8754C28.8754 20.4879 28.8027 20.3121 28.673 20.1827C28.5434 20.0531 28.3678 19.9804 28.1847 19.9804H28.1848Z" fill="#629FF4"/>
<path d="M28.1848 22.3982C27.8425 22.3939 27.5488 22.6406 27.4939 22.9785C27.1899 23.2686 25.6116 23.7798 23.0041 23.7798C20.3967 23.7798 18.8079 23.2616 18.5145 22.9785C18.4839 22.5969 18.15 22.3124 17.7684 22.343C17.387 22.3736 17.1025 22.7075 17.1328 23.0889C17.1328 25.061 22.0233 25.1612 23.004 25.1612C23.9847 25.1612 28.8752 25.061 28.8752 23.0889H28.8754C28.8754 22.9058 28.8027 22.7302 28.673 22.6006C28.5434 22.4709 28.3678 22.3982 28.1847 22.3982H28.1848Z" fill="#629FF4"/>
<path d="M28.1848 24.8156C27.8425 24.8112 27.5488 25.0582 27.4939 25.3959C27.1899 25.686 25.6116 26.1972 23.0041 26.1972C20.3967 26.1972 18.8079 25.679 18.5145 25.3959C18.4839 25.0143 18.15 24.7298 17.7684 24.7604C17.387 24.791 17.1025 25.1249 17.1328 25.5065C17.1328 27.4786 22.0233 27.5788 23.004 27.5788C23.9847 27.5788 28.8752 27.4786 28.8752 25.5065H28.8754C28.8754 25.3232 28.8027 25.1475 28.673 25.0179C28.5434 24.8883 28.3678 24.8156 28.1847 24.8156L28.1848 24.8156Z" fill="#629FF4"/>
</svg>
