<svg width="32" height="32" viewBox="0 0 32 32" fill="none" xmlns="http://www.w3.org/2000/svg">
<rect width="31.5" height="31.5" rx="4.2" fill="#E5F7FD"/>
<path d="M15.6321 4.20001C9.32853 4.20001 4.19983 9.32871 4.19983 15.6323C4.19983 18.4507 5.22695 21.032 6.92393 23.027C6.94566 23.0605 6.97058 23.0922 6.99969 23.1213C7.00627 23.1279 7.01364 23.1321 7.02022 23.1383C9.11774 25.5416 12.1994 27.0643 15.6322 27.0643C19.0649 27.0643 22.1466 25.5416 24.2442 23.1383C24.2508 23.1323 24.2585 23.1277 24.2647 23.1213C24.2938 23.0922 24.3189 23.0601 24.3405 23.027C26.0374 21.0318 27.0646 18.4504 27.0646 15.6323C27.0646 9.32871 21.9357 4.20001 15.6321 4.20001ZM15.6321 25.9213C12.7102 25.9213 10.0711 24.6953 8.19653 22.7329L8.97964 21.9498C9.73622 21.1934 10.7418 20.7768 11.811 20.7768H19.4533C20.5225 20.7768 21.528 21.1934 22.2845 21.9496L23.0676 22.7327C21.1931 24.695 18.5541 25.9213 15.6321 25.9213ZM23.8133 21.8619L23.0928 21.1414C22.1205 20.1691 20.8281 19.6334 19.4533 19.6334H11.811C10.4362 19.6334 9.14393 20.1691 8.17163 21.1414L7.45114 21.8619C6.12994 20.1315 5.34306 17.9723 5.34306 15.6323C5.34306 9.95907 9.95853 5.34329 15.6321 5.34329C21.3054 5.34329 25.9212 9.95877 25.9212 15.6323C25.9212 17.9725 25.1343 20.1316 23.8133 21.8619ZM15.6321 9.34459C13.1108 9.34459 11.0591 11.396 11.0591 13.9176C11.0591 16.4389 13.1105 18.4906 15.6321 18.4906C18.1534 18.4906 20.2051 16.4392 20.2051 13.9176C20.2051 11.396 18.1535 9.34459 15.6321 9.34459ZM15.6321 17.3472C13.7409 17.3472 12.2025 15.8087 12.2025 13.9175C12.2025 12.0264 13.741 10.4879 15.6321 10.4879C17.5232 10.4879 19.0617 12.0264 19.0617 13.9175C19.0617 15.8087 17.5232 17.3472 15.6321 17.3472Z" fill="#24B8F1"/>
</svg>
